<svg data-name="Layer 1" viewBox="0 0 73.843 70.806" xmlns="http://www.w3.org/2000/svg"><path d="M33.084 81.166a.505.505 0 0 0-.445.37l-.506 2.726.08.096h36.19l.08-.096-.505-2.727a.506.506 0 0 0-.446-.37H33.084ZM41.17 46.378l-15.572-7.1a.75.75 0 0 1 0-1.364l15.572-7.1v-1.577l-18.906 8.631v1.456l18.906 8.631Z" transform="translate(-13.387 -15.052)" fill="none"></path><path d="M85.73 58.5V20.784a4.237 4.237 0 0 0-4.232-4.232h-62.38a4.237 4.237 0 0 0-4.231 4.232V58.5ZM57.945 45.896a.751.751 0 0 1 .439-.683l14.513-6.617-14.513-6.617a.751.751 0 0 1-.439-.682V28.07a.75.75 0 0 1 1.062-.682l20.406 9.316a.749.749 0 0 1 .439.682v2.42a.749.749 0 0 1-.439.682l-20.406 9.316a.75.75 0 0 1-1.062-.682Zm-7.328-22.401a.75.75 0 0 1 .738-.616h3.227a.75.75 0 0 1 .738.884l-5.323 29.199a.75.75 0 0 1-.738.616h-3.227a.75.75 0 0 1-.738-.885ZM20.764 37.386a.749.749 0 0 1 .438-.682l20.406-9.316a.75.75 0 0 1 1.062.682v3.227a.751.751 0 0 1-.439.682l-14.514 6.617 14.514 6.617a.751.751 0 0 1 .439.683v3.226a.75.75 0 0 1-1.062.682l-20.406-9.316a.749.749 0 0 1-.438-.682Z" transform="translate(-13.387 -15.052)" fill="none"></path><path d="M40.297 9.327h-1.701l-5.05 27.698h1.701l5.05-27.698z" fill="none"></path><path d="m78.353 37.868-18.907-8.63v1.576l15.572 7.1a.75.75 0 0 1 0 1.365l-15.572 7.1v1.576l18.907-8.63ZM14.887 60v1.972a4.236 4.236 0 0 0 4.231 4.231h62.38a4.236 4.236 0 0 0 4.231-4.23V60Zm35.42 4.758a1.656 1.656 0 1 1 1.657-1.656 1.658 1.658 0 0 1-1.656 1.656Z" transform="translate(-13.387 -15.052)" fill="none"></path><path d="M28.262 64.613h17.319l-2.823-11.962H31.084l-2.822 11.962z" fill="none"></path><circle cx="36.921" cy="48.049" r=".656" fill="none"></circle><path d="M68.111 0H5.731A5.738 5.738 0 0 0 0 5.731V46.92a5.738 5.738 0 0 0 5.731 5.73h23.812L26.72 64.614h-7.024a2.003 2.003 0 0 0-1.92 1.596l-.505 2.727a1.552 1.552 0 0 0 1.554 1.87h36.19a1.552 1.552 0 0 0 1.555-1.87l-.506-2.727a2.003 2.003 0 0 0-1.92-1.596h-7.023l-2.823-11.962h23.812a5.738 5.738 0 0 0 5.732-5.731V5.73A5.738 5.738 0 0 0 68.11 0ZM5.731 1.5h62.38a4.237 4.237 0 0 1 4.232 4.231v37.717H1.5V5.73A4.237 4.237 0 0 1 5.731 1.5Zm48.415 64.613a.506.506 0 0 1 .445.37l.506 2.727-.08.096h-36.19l-.08-.096.505-2.727a.505.505 0 0 1 .445-.37h34.449Zm-8.565-1.5h-17.32l2.823-11.962h11.674Zm22.53-13.462H5.731A4.236 4.236 0 0 1 1.5 46.92v-1.972h70.843v1.972a4.236 4.236 0 0 1-4.232 4.23Z" fill="#ffffff" class="fill-000000"></path><path d="M36.92 46.393a1.656 1.656 0 1 0 1.657 1.656 1.658 1.658 0 0 0-1.656-1.656Zm0 2.313a.656.656 0 1 1 .657-.657.657.657 0 0 1-.656.657ZM7.815 25.436l20.407 9.316a.75.75 0 0 0 1.061-.682v-3.226a.751.751 0 0 0-.438-.683L14.33 23.544l14.515-6.617a.751.751 0 0 0 .438-.682v-3.227a.75.75 0 0 0-1.061-.682L7.815 21.652a.749.749 0 0 0-.438.682v2.42a.749.749 0 0 0 .438.682Zm1.062-2.62 18.906-8.63v1.576l-15.572 7.1a.75.75 0 0 0 0 1.365l15.572 7.1v1.576L8.877 24.272ZM32.646 38.525h3.227a.75.75 0 0 0 .738-.615l5.324-29.2a.75.75 0 0 0-.739-.883H37.97a.75.75 0 0 0-.739.615l-5.323 29.2a.75.75 0 0 0 .738.883Zm5.95-29.198h1.7l-5.049 27.698h-1.701ZM45.31 34.82a.751.751 0 0 0 .311-.068l20.406-9.316a.749.749 0 0 0 .439-.682v-2.42a.749.749 0 0 0-.439-.682l-20.406-9.316a.75.75 0 0 0-1.061.682v3.227a.751.751 0 0 0 .438.682l14.514 6.617-14.514 6.617a.751.751 0 0 0-.438.683v3.226a.75.75 0 0 0 .75.75Zm.75-3.494 15.57-7.1a.75.75 0 0 0 0-1.365l-15.57-7.099v-1.577l18.906 8.63v1.457l-18.906 8.63Z" fill="#ffffff" class="fill-000000"></path></svg>